<svg width="41" height="40" xmlns="http://www.w3.org/2000/svg"><g fill="none" fill-rule="evenodd"><path d="M18.802 1c4.277 0 7.986 2.391 9.818 5.888a9.566 9.566 0 011.219-.078c5.225 0 9.46 4.163 9.46 9.297s-4.235 9.297-9.46 9.297c-.132 0-.264-.003-.395-.008v.008H7.765c-3.7 0-6.7-2.949-6.7-6.586 0-3.636 3-6.585 6.7-6.585h.008l-.004-.103h0l-.003-.284C7.765 5.856 12.706 1 18.802 1z" stroke="#C1C1C6" stroke-width="2" opacity=".948"/><path stroke="#54C9F9" stroke-linecap="square" d="M8.397 30.179l-2.69 4.071M13.776 32.893l-4.035 5.428M21.845 30.179l-4.035 5.428M29.914 30.179l-5.38 8.142M33.948 35.607l-1.345 2.714"/></g></svg>